<?xml version="1.0" standalone="no"?>
<!DOCTYPE svg PUBLIC "-//W3C//DTD SVG 20010904//EN"
 "http://www.w3.org/TR/2001/REC-SVG-20010904/DTD/svg10.dtd">
<svg version="1.0" xmlns="http://www.w3.org/2000/svg"
 width="128.000000pt" height="128.000000pt" viewBox="0 0 128.000000 128.000000"
 preserveAspectRatio="xMidYMid meet">

<g transform="translate(0.000000,128.000000) scale(0.100000,-0.100000)"
fill="#000000" stroke="none">
<path d="M455 1265 c-38 -19 -57 -49 -64 -100 l-6 -40 -102 -5 c-90 -4 -104
-8 -127 -29 -50 -47 -41 -137 18 -176 l25 -16 3 -392 c3 -371 4 -394 23 -426
11 -19 33 -43 48 -55 28 -20 39 -21 365 -21 333 0 337 0 368 22 63 45 64 50
64 480 l0 390 25 11 c30 14 65 68 65 100 0 31 -25 77 -52 96 -17 12 -48 16
-120 16 l-98 0 0 31 c0 47 -28 96 -65 113 -46 22 -326 23 -370 1z m357 -62
c10 -9 18 -30 18 -50 l0 -33 -190 0 -190 0 0 32 c0 63 15 68 188 68 131 0 158
-3 174 -17z m272 -159 c21 -20 20 -43 -1 -66 -15 -17 -42 -18 -444 -18 -375 0
-429 2 -443 16 -9 8 -16 24 -16 34 0 10 7 26 16 34 14 14 68 16 444 16 376 0
430 -2 444 -16z m-74 -535 l0 -391 -29 -29 -29 -29 -312 0 -312 0 -29 29 -29
29 0 391 0 391 370 0 370 0 0 -391z"/>
<path d="M446 805 c-14 -14 -16 -53 -16 -304 0 -243 2 -290 15 -301 8 -7 22
-10 30 -6 13 5 15 47 15 304 0 244 -3 302 -14 311 -11 9 -18 8 -30 -4z"/>
<path d="M803 813 c-10 -4 -13 -75 -13 -309 0 -273 2 -305 16 -311 40 -15 44
17 44 313 0 244 -2 285 -16 298 -8 9 -16 16 -17 15 -1 0 -8 -3 -14 -6z"/>
<path d="M617 804 c-4 -4 -7 -139 -7 -299 0 -248 2 -294 15 -305 12 -10 18
-10 30 0 13 11 15 54 13 309 -3 289 -3 296 -23 299 -12 2 -24 0 -28 -4z"/>
</g>
</svg>
