<?xml version="1.0" standalone="no"?>
<!DOCTYPE svg PUBLIC "-//W3C//DTD SVG 20010904//EN"
 "http://www.w3.org/TR/2001/REC-SVG-20010904/DTD/svg10.dtd">
<svg version="1.0" xmlns="http://www.w3.org/2000/svg"
 width="128.000000pt" height="128.000000pt" viewBox="0 0 128.000000 128.000000"
 preserveAspectRatio="xMidYMid meet">

<g transform="translate(0.000000,128.000000) scale(0.100000,-0.100000)"
fill="#000000" stroke="none">
<path d="M915 1224 c-16 -9 -189 -174 -383 -368 l-353 -351 -70 -219 c-64
-194 -70 -220 -56 -233 13 -14 39 -8 234 57 l218 72 348 347 c223 222 355 361
367 387 38 77 20 138 -68 227 -91 93 -165 118 -237 81z m186 -123 c63 -63 69
-73 69 -110 0 -31 -7 -48 -29 -73 l-30 -33 -116 115 -116 115 33 28 c24 20 43
27 76 27 41 0 49 -5 113 -69z m-153 -154 l112 -112 -288 -288 -287 -287 -115
115 -115 115 285 285 c157 157 287 285 290 285 3 0 56 -51 118 -113z m-618
-622 c52 -52 92 -96 89 -98 -9 -9 -283 -96 -287 -92 -6 6 88 285 97 285 3 0
49 -43 101 -95z"/>
</g>
</svg>
